<svg width="26" height="26" viewBox="0 0 26 26" xmlns="http://www.w3.org/2000/svg">
<path d="M22.75 2.16667H3.25V21.6667H9.75L13 24.9167L16.25 21.6667H22.75V2.16667ZM14.0833 19.5H11.9167V17.3333H14.0833V19.5ZM16.3258 11.1042L15.3508 12.1008C14.5708 12.8917 14.0833 13.5417 14.0833 15.1667H11.9167V14.625C11.9167 13.4333 12.4042 12.35 13.1842 11.5592L14.5275 10.1942C14.9283 9.80417 15.1667 9.26251 15.1667 8.66667C15.1667 7.47501 14.1917 6.50001 13 6.50001C11.8083 6.50001 10.8333 7.47501 10.8333 8.66667H8.66667C8.66667 6.27251 10.6058 4.33334 13 4.33334C15.3942 4.33334 17.3333 6.27251 17.3333 8.66667C17.3333 9.62001 16.9433 10.4867 16.3258 11.1042Z" />
</svg>
