<svg width="26" height="26" viewBox="0 0 26 26" xmlns="http://www.w3.org/2000/svg">
<path d="M21.0492 14.0617C21.0925 13.715 21.125 13.3683 21.125 13C21.125 12.6317 21.0925 12.285 21.0492 11.9383L23.335 10.1508C23.5408 9.98832 23.595 9.69582 23.465 9.45749L21.2983 5.70916C21.1683 5.47082 20.8758 5.38416 20.6375 5.47082L17.94 6.55416C17.3767 6.12082 16.77 5.76332 16.1092 5.49249L15.6975 2.62166C15.665 2.36166 15.4375 2.16666 15.1667 2.16666H10.8333C10.5625 2.16666 10.335 2.36166 10.3025 2.62166L9.89084 5.49249C9.23001 5.76332 8.62334 6.13166 8.06001 6.55416L5.36251 5.47082C5.11334 5.37332 4.83168 5.47082 4.70168 5.70916L2.53501 9.45749C2.39418 9.69582 2.45918 9.98832 2.66501 10.1508L4.95084 11.9383C4.90751 12.285 4.87501 12.6425 4.87501 13C4.87501 13.3575 4.90751 13.715 4.95084 14.0617L2.66501 15.8492C2.45918 16.0117 2.40501 16.3042 2.53501 16.5425L4.70168 20.2908C4.83168 20.5292 5.12418 20.6158 5.36251 20.5292L8.06001 19.4458C8.62334 19.8792 9.23001 20.2367 9.89084 20.5075L10.3025 23.3783C10.335 23.6383 10.5625 23.8333 10.8333 23.8333H15.1667C15.4375 23.8333 15.665 23.6383 15.6975 23.3783L16.1092 20.5075C16.77 20.2367 17.3767 19.8683 17.94 19.4458L20.6375 20.5292C20.8867 20.6267 21.1683 20.5292 21.2983 20.2908L23.465 16.5425C23.595 16.3042 23.5408 16.0117 23.335 15.8492L21.0492 14.0617V14.0617ZM13 16.7917C10.9092 16.7917 9.20834 15.0908 9.20834 13C9.20834 10.9092 10.9092 9.20832 13 9.20832C15.0908 9.20832 16.7917 10.9092 16.7917 13C16.7917 15.0908 15.0908 16.7917 13 16.7917Z" />
</svg>
